# xmcd
#
# Track frame offsets: 
#        150
#        15682
#        29946
#        43469
#        59806
#        74353
#        88830
#        100478
#        110736
#        123114
#        139144
#
# Disc length: 2044 seconds
#
# Revision: 1
# Processed by: cddbd v1.5.2PL0 Copyright (c) Steve Scherf et al.
# Submitted via: ExactAudioCopy v1.3
#
DISCID=b007fa0b
DTITLE=El Michels Affair - Sounding Out The City
DYEAR=2014
DGENRE=Funk
TTITLE0=Detroit Twice
TTITLE1=Musings To Myself
TTITLE2=Too Late To Turn Back
TTITLE3=El Pueblo Unido
TTITLE4=Behind The Blue Curtain
TTITLE5=Ochos Rios
TTITLE6=Yennicita
TTITLE7=Creation
TTITLE8=This Song's For You
TTITLE9=Slide Show
TTITLE10=Hung Up On My Baby
EXTD=
EXTT0=
EXTT1=
EXTT2=
EXTT3=
EXTT4=
EXTT5=
EXTT6=
EXTT7=
EXTT8=
EXTT9=
EXTT10=
PLAYORDER=
